# Blender v2.78 (sub 0) OBJ File: 'room2.blend'
# www.blender.org
mtllib room2.mtl
o Cylinder
v -0.382682 1.000000 -0.923880
v -0.382682 -1.000000 -0.923880
v -0.555569 1.000000 -0.831470
v -0.555569 -1.000000 -0.831470
v -0.707106 1.000000 -0.707108
v -0.707106 -1.000000 -0.707108
v -0.831469 1.000000 -0.555571
v -0.831469 -1.000000 -0.555571
v -0.923879 1.000000 -0.382684
v -0.923879 -1.000000 -0.382684
v -0.980785 1.000000 -0.195091
v -0.980785 -1.000000 -0.195091
v -1.000000 1.000000 -0.000001
v -1.000000 -1.000000 -0.000001
v -0.980785 1.000000 0.195089
v -0.980785 -1.000000 0.195089
v -0.923880 1.000000 0.382683
v -0.923880 -1.000000 0.382683
v -0.831470 1.000000 0.555570
v -0.831470 -1.000000 0.555570
v -0.707107 1.000000 0.707106
v -0.707107 -1.000000 0.707106
v -0.555571 1.000000 0.831469
v -0.555571 -1.000000 0.831469
v -0.382684 1.000000 0.923879
v -0.382684 -1.000000 0.923879
v -0.195091 1.000000 0.980785
v -0.195091 -1.000000 0.980785
v -0.000000 1.000000 1.000000
v -0.000000 -1.000000 1.000000
v 0.195090 1.000000 0.980785
v 0.195090 -1.000000 0.980785
v 0.382683 1.000000 0.923880
v 0.382683 -1.000000 0.923880
v 0.555570 1.000000 0.831470
v 0.555570 -1.000000 0.831470
v 0.707107 1.000000 0.707107
v 0.707107 -1.000000 0.707107
v 0.831470 1.000000 0.555570
v 0.831470 -1.000000 0.555570
v 0.923880 1.000000 0.382683
v 0.923880 -1.000000 0.382683
v 0.980785 1.000000 0.195090
v 0.980785 -1.000000 0.195090
v 1.000000 1.000000 -0.000000
v 1.000000 -1.000000 -0.000000
v 0.980785 1.000000 -0.195090
v 0.980785 -1.000000 -0.195090
v 0.923880 1.000000 -0.382683
v 0.923880 -1.000000 -0.382683
v 0.831470 1.000000 -0.555570
v 0.831470 -1.000000 -0.555570
v 0.707107 1.000000 -0.707107
v 0.707107 -1.000000 -0.707107
v 0.555570 1.000000 -0.831470
v 0.555570 -1.000000 -0.831470
v 0.382683 1.000000 -0.923880
v 0.382683 -1.000000 -0.923880
v 0.195090 1.000000 -0.980785
v 0.195090 -1.000000 -0.980785
v 0.000000 1.000000 -1.000000
v 0.000000 -1.000000 -1.000000
v -0.195089 -1.000000 -0.980786
v -0.195089 1.000000 -0.980786
vt 0.8124 1.0000
vt 0.8436 0.0000
vt 0.8124 0.0000
vt 0.7811 1.0000
vt 0.7811 0.0000
vt 0.7499 1.0000
vt 0.7499 0.0000
vt 0.7186 1.0000
vt 0.7186 0.0000
vt 0.6874 1.0000
vt 0.6874 0.0000
vt 0.6561 1.0000
vt 0.6561 0.0000
vt 0.6249 1.0000
vt 0.6249 0.0000
vt 0.5936 1.0000
vt 0.5936 0.0000
vt 0.5624 1.0000
vt 0.5624 0.0000
vt 0.5311 1.0000
vt 0.5311 0.0000
vt 0.8436 1.0000
vt 0.8749 0.0000
vt 0.8749 1.0000
vt 0.9061 0.0000
vt 0.9061 1.0000
vt 0.9374 0.0000
vt 0.9374 1.0000
vt 0.9686 0.0000
vt 0.9686 1.0000
vt 0.9999 0.0000
vt -0.0001 1.0000
vt 0.0311 0.0000
vt -0.0001 0.0000
vt 0.0311 1.0000
vt 0.0624 0.0000
vt 0.0624 1.0000
vt 0.0936 0.0000
vt 0.0936 1.0000
vt 0.1249 0.0000
vt 0.1249 1.0000
vt 0.1561 0.0000
vt 0.1561 1.0000
vt 0.1874 0.0000
vt 0.1874 1.0000
vt 0.2186 0.0000
vt 0.2186 1.0000
vt 0.2499 0.0000
vt 0.2499 1.0000
vt 0.2811 0.0000
vt 0.2811 1.0000
vt 0.3124 0.0000
vt 0.3124 1.0000
vt 0.3436 0.0000
vt 0.3436 1.0000
vt 0.3749 0.0000
vt 0.3749 1.0000
vt 0.4061 0.0000
vt 0.4061 1.0000
vt 0.4374 0.0000
vt 0.4374 1.0000
vt 0.4686 0.0000
vt 0.4686 1.0000
vt 0.4999 0.0000
vt 0.4999 1.0000
vt 0.9999 1.0000
vn 0.9569 0.0000 0.2903
vn 0.9952 0.0000 0.0980
vn 0.9952 0.0000 -0.0980
vn 0.9569 0.0000 -0.2903
vn 0.8819 0.0000 -0.4714
vn 0.7730 0.0000 -0.6344
vn 0.6344 0.0000 -0.7730
vn 0.4714 0.0000 -0.8819
vn 0.2903 0.0000 -0.9569
vn 0.0980 0.0000 -0.9952
vn 0.8819 0.0000 0.4714
vn 0.7730 0.0000 0.6344
vn 0.6344 0.0000 0.7730
vn 0.4714 0.0000 0.8819
vn 0.2903 0.0000 0.9569
vn 0.0980 0.0000 0.9952
vn -0.0980 0.0000 0.9952
vn -0.2903 0.0000 0.9569
vn -0.4714 0.0000 0.8819
vn -0.6344 0.0000 0.7730
vn -0.7730 0.0000 0.6344
vn -0.8819 0.0000 0.4714
vn -0.9569 0.0000 0.2903
vn -0.9952 0.0000 0.0980
vn -0.9952 0.0000 -0.0980
vn -0.9569 0.0000 -0.2903
vn -0.8819 0.0000 -0.4714
vn -0.7730 0.0000 -0.6344
vn -0.6344 0.0000 -0.7730
vn -0.4714 0.0000 -0.8819
vn -0.2903 0.0000 -0.9569
vn -0.0980 0.0000 -0.9952
usemtl None
s off
f 43/1/1 42/2/1 44/3/1
f 45/4/2 44/3/2 46/5/2
f 47/6/3 46/5/3 48/7/3
f 49/8/4 48/7/4 50/9/4
f 51/10/5 50/9/5 52/11/5
f 53/12/6 52/11/6 54/13/6
f 55/14/7 54/13/7 56/15/7
f 57/16/8 56/15/8 58/17/8
f 59/18/9 58/17/9 60/19/9
f 61/20/10 60/19/10 62/21/10
f 41/22/11 40/23/11 42/2/11
f 39/24/12 38/25/12 40/23/12
f 37/26/13 36/27/13 38/25/13
f 35/28/14 34/29/14 36/27/14
f 33/30/15 32/31/15 34/29/15
f 31/32/16 30/33/16 32/34/16
f 29/35/17 28/36/17 30/33/17
f 27/37/18 26/38/18 28/36/18
f 25/39/19 24/40/19 26/38/19
f 23/41/20 22/42/20 24/40/20
f 21/43/21 20/44/21 22/42/21
f 19/45/22 18/46/22 20/44/22
f 17/47/23 16/48/23 18/46/23
f 15/49/24 14/50/24 16/48/24
f 13/51/25 12/52/25 14/50/25
f 11/53/26 10/54/26 12/52/26
f 9/55/27 8/56/27 10/54/27
f 7/57/28 6/58/28 8/56/28
f 5/59/29 4/60/29 6/58/29
f 3/61/30 2/62/30 4/60/30
f 1/63/31 63/64/31 2/62/31
f 64/65/32 62/21/32 63/64/32
f 43/1/1 41/22/1 42/2/1
f 45/4/2 43/1/2 44/3/2
f 47/6/3 45/4/3 46/5/3
f 49/8/4 47/6/4 48/7/4
f 51/10/5 49/8/5 50/9/5
f 53/12/6 51/10/6 52/11/6
f 55/14/7 53/12/7 54/13/7
f 57/16/8 55/14/8 56/15/8
f 59/18/9 57/16/9 58/17/9
f 61/20/10 59/18/10 60/19/10
f 41/22/11 39/24/11 40/23/11
f 39/24/12 37/26/12 38/25/12
f 37/26/13 35/28/13 36/27/13
f 35/28/14 33/30/14 34/29/14
f 33/30/15 31/66/15 32/31/15
f 31/32/16 29/35/16 30/33/16
f 29/35/17 27/37/17 28/36/17
f 27/37/18 25/39/18 26/38/18
f 25/39/19 23/41/19 24/40/19
f 23/41/20 21/43/20 22/42/20
f 21/43/21 19/45/21 20/44/21
f 19/45/22 17/47/22 18/46/22
f 17/47/23 15/49/23 16/48/23
f 15/49/24 13/51/24 14/50/24
f 13/51/25 11/53/25 12/52/25
f 11/53/26 9/55/26 10/54/26
f 9/55/27 7/57/27 8/56/27
f 7/57/28 5/59/28 6/58/28
f 5/59/29 3/61/29 4/60/29
f 3/61/30 1/63/30 2/62/30
f 1/63/31 64/65/31 63/64/31
f 64/65/32 61/20/32 62/21/32
