# Created by MKDS Course Modifier
mtllib Jolene's Sword.mtl
g polygon0
usemtl mt_sword
v -0.03662109 -0.015625 0.229248
v 0.03662109 0 0.229248
v 0.07128906 0 0.5554199
v -0.03662109 0.015625 0.229248
v 0.03295898 0 0.8154297
v -0.1003418 0.01318359 0.5751953
v -0.128418 0 0.9538574
v -0.3862305 0 0.9833984
v -0.1003418 -0.01318359 0.5751953
v -0.1003418 0.01318359 0.5751953
v -0.03662109 0.015625 0.229248
vn -0.5996094 -0.7949219 -0.08984375
vn 0.9882813 0 -0.1484375
vn 0.9941406 0 0.109375
vn -0.5996094 0.7949219 -0.08984375
vn 0.8144531 0 0.5800781
vn -0.578125 0.78125 -0.2382813
vn 0.3339844 0 0.9433594
vn -0.7832031 0 0.6230469
vn -0.578125 -0.78125 -0.2382813
vn -0.578125 0.78125 -0.2382813
vn -0.5996094 0.7949219 -0.08984375
vt 1 -0.5
vt 0.8457031 -0.5
vt 0.8076172 -0.2900391
vt 1 -0.5
vt 0.8027344 -0.1171875
vt 1 -0.2949219
vt 0.7998047 0
vt 1 0.01171875
vt 1 -0.2949219
vt 1 -0.2949219
vt 1 -0.5
f 1/1/1 2/2/2 3/3/3
f 2/2/2 4/4/4 3/3/3
f 3/3/3 4/4/4 5/5/5
f 4/4/4 6/6/6 5/5/5
f 5/5/5 6/6/6 7/7/7
f 6/6/6 8/8/8 7/7/7
f 7/7/7 8/8/8 9/9/9
f 8/8/8 10/10/10 9/9/9
f 9/9/9 10/10/10 11/11/11
v 0 -0.05932617 0.1870117
v 0.1679688 0 0.1870117
v 0.1679688 0 0.1870117
v 0 0 0.09155273
v 0 0.05932617 0.1870117
v -0.1679688 0 0.1870117
v -0.1679688 0 0.1870117
v 0 0 0.09155273
v 0 -0.05932617 0.1870117
v 0.1679688 0 0.1870117
vn 0 -0.90625 0.421875
vn 0.2871094 -0.8125 -0.5058594
vn 0.2714844 0.7714844 0.5761719
vn 0 0 -1
vn 0 0.90625 0.421875
vn -0.2871094 0.8125 -0.5058594
vn -0.2714844 -0.7714844 0.5761719
vn 0 0 -1
vn 0 -0.90625 0.421875
vn 0.2871094 -0.8125 -0.5058594
vt 0.5 -0.2675781
vt 0.2685547 -0.2675781
vt 0.2685547 -0.2675781
vt 0.5 -0.4248047
vt 0.5 -0.2675781
vt 0.7314453 -0.2675781
vt 0.7314453 -0.2675781
vt 0.5 -0.4248047
vt 0.5 -0.2675781
vt 0.2685547 -0.2675781
f 12/12/12 13/13/13 14/14/14
f 13/13/13 15/15/15 14/14/14
f 14/14/14 15/15/15 16/16/16
f 15/15/15 17/17/17 16/16/16
f 16/16/16 17/17/17 18/18/18
f 17/17/17 19/19/19 18/18/18
f 18/18/18 19/19/19 20/20/20
f 19/19/19 21/21/21 20/20/20
v -0.08276367 0 -0.140625
v 0 -0.02368164 -0.140625
v 0 0 -0.09838867
v 0.08276367 0 -0.140625
v 0 0.02368164 -0.140625
v 0 0 -0.2355957
v -0.08276367 0 -0.140625
v 0 -0.02368164 -0.140625
vn -0.9902344 0 0.1367188
vn 0 -0.9921875 0.1269531
vn 0 0 0.9980469
vn 0.9941406 0 0.109375
vn 0 0.9921875 0.1269531
vn 0 0 -1
vn -0.9902344 0 0.1367188
vn 0 -0.9921875 0.1269531
vt 0.5 0.25
vt 0.5 0
vt 0.25 0
vt 0.5 -0.25
vt 0.5 0
vt 0.75 0
vt 0.5 0.25
vt 0.5 0
f 22/22/22 23/23/23 24/24/24
f 23/23/23 25/25/25 24/24/24
f 24/24/24 25/25/25 26/26/26
f 25/25/25 27/27/27 26/26/26
f 26/26/26 27/27/27 28/28/28
f 27/27/27 29/29/29 28/28/28
v -0.03662109 0 -0.1337891
v 0.03662109 0 -0.1337891
v 0.03662109 0 0.229248
v -0.03662109 0 -0.1337891
v -0.03662109 0.015625 0.229248
v -0.03662109 -0.015625 0.229248
vn -0.06640625 0 -0.9980469
vn 0 0 0.9980469
vn 0.9882813 0 -0.1484375
vn -0.06640625 0 -0.9980469
vn -0.5996094 0.7949219 -0.08984375
vn -0.5996094 -0.7949219 -0.08984375
vt 0.7304688 -0.4248047
vt 0.7304688 -0.5693359
vt 0.2050781 -0.5693359
vt 0.7304688 -0.4248047
vt 0.2050781 -0.4248047
vt 0.2050781 -0.4248047
f 30/30/30 31/31/31 32/32/32
f 31/31/31 33/33/33 32/32/32
f 32/32/32 33/33/33 34/34/34
f 33/33/33 35/35/35 34/34/34
v 0.07128906 0 0.5554199
v 0.03295898 0 0.8154297
v -0.03662109 -0.015625 0.229248
v -0.1003418 -0.01318359 0.5751953
v -0.03662109 0.015625 0.229248
vn 0.9941406 0 0.109375
vn 0.8144531 0 0.5800781
vn -0.5996094 -0.7949219 -0.08984375
vn -0.578125 -0.78125 -0.2382813
vn -0.5996094 0.7949219 -0.08984375
vt 0.8076172 -0.2900391
vt 0.8027344 -0.1171875
vt 1 -0.5
vt 1 -0.2949219
vt 1 -0.5
f 36/36/36 37/37/37 38/38/38
f 37/37/37 39/39/39 38/38/38
f 38/38/38 39/39/39 40/40/40
v 0 0.05932617 0.1870117
v -0.1679688 0 0.1870117
v 0 -0.05932617 0.1870117
v 0.1679688 0 0.1870117
v 0 0.05932617 0.1870117
v 0 -0.05932617 0.1870117
v -0.1003418 -0.01318359 0.5751953
v 0.03295898 0 0.8154297
v -0.128418 0 0.9538574
v -0.03662109 -0.015625 0.229248
v -0.03662109 0 -0.1337891
v 0.03662109 0 0.229248
v 0 -0.02368164 -0.140625
v 0 0 -0.2355957
v 0.08276367 0 -0.140625
v 0 0.02368164 -0.140625
v -0.08276367 0 -0.140625
v 0 0 -0.09838867
vn 0 0.90625 0.421875
vn -0.2714844 -0.7714844 0.5761719
vn 0 -0.90625 0.421875
vn 0.2714844 0.7714844 0.5761719
vn 0 0.90625 0.421875
vn 0 -0.90625 0.421875
vn -0.578125 -0.78125 -0.2382813
vn 0.8144531 0 0.5800781
vn 0.3339844 0 0.9433594
vn -0.5996094 -0.7949219 -0.08984375
vn -0.06640625 0 -0.9980469
vn 0.9882813 0 -0.1484375
vn 0 -0.9921875 0.1269531
vn 0 0 -1
vn 0.9941406 0 0.109375
vn 0 0.9921875 0.1269531
vn -0.9902344 0 0.1367188
vn 0 0 0.9980469
vt 0.2041016 -0.3125
vt 0.3183594 -0.1943359
vt 0.2041016 -0.07617188
vt 0.3183594 -0.1943359
vt 0.2041016 -0.07617188
vt 0.2041016 -0.3125
vt 1 -0.2949219
vt 0.8027344 -0.1171875
vt 0.7998047 0
vt 0.2050781 -0.4248047
vt 0.7304688 -0.4248047
vt 0.2050781 -0.5693359
vt 0.5 0
vt 0.75 0
vt 0.5 -0.25
vt 0.5 0
vt 0.5 0.25
vt 0.25 0
f 41/41/41 42/42/42 43/43/43
f 44/44/44 45/45/45 46/46/46
f 47/47/47 48/48/48 49/49/49
f 50/50/50 51/51/51 52/52/52
f 53/53/53 54/54/54 55/55/55
f 56/56/56 57/57/57 58/58/58
